# xmcd CD database file
#
# Track frame offsets:
#	150
#	19286
#	33227
#	49447
#	70200
#	86429
#	110781
#	133658
#	150399
#	170429
#	178792
#	193947
#	211210
#	222074
#	238927
#	253251
#
# Disc length: 3689 seconds
#
# Revision: 3
# Processed by: cddbd v1.5.2PL0 Copyright (c) Steve Scherf et al.
# Submitted via: CDex 1.70beta2
#
DISCID=ed0e6710
DTITLE=R.W. Hampton - Then Sings My Soul
DYEAR=1998
DGENRE=Country
TTITLE0=The Place Where I Worship
TTITLE1=Great Is Thy Faithfulness
TTITLE2=The Shadow Of The Cross
TTITLE3=I'd Rather Have Jesus
TTITLE4=She's Just Moved On
TTITLE5=Farther Along
TTITLE6=Watch Him
TTITLE7=It Is No Secret
TTITLE8=The Quest
TTITLE9=Blessed Assurance
TTITLE10=Jesus Hold My Hand
TTITLE11=A Mother's Prayers
TTITLE12=The Touch Of God's Hand
TTITLE13=The Dream
TTITLE14=Life's Railway To Heaven
TTITLE15=How Great Thou Art
EXTD=The Gospel Album\nCopyright Mustang Music\nmm70498\n\nR. W. Hampton\nBobcat Pass\nMoreno Valley Ranch\nColfax County, New Mexico YEAR: 1998
EXTT0=Fay Foster, Al Goodhart, Florence Tarr, Larry Spicer Inc., ASCAP
EXTT1=illiam Runyan and Thomas Chisholm, Hope Publishing Co. ASCAP
EXTT2=R. W. Hampton, Mustang Music, BMI
EXTT3=George B. Shea and Rhea Miller, Chancel Music Inc.
EXTT4=R. W. Hampton, Mustang Mucis, BMI
EXTT5=(Traditional)
EXTT6=Jack Hannah, Great American Cowboy Music, BMI
EXTT7=Stuart Hamblen, Duchess Music Corp, ASCAP
EXTT8=R. W. Hampton, Mustang Music, BMI
EXTT9=Fanny Crosby and Phoebe Knapp, Paragon Assoc. Inc.
EXTT10=James Walker, Duchess Music Corp., BMI
EXTT11=R. W. Hampton, Mustang Music, BMI
EXTT12=Bob Nolan, Unichappel Music Inc., BMI
EXTT13=R. W. Hampton, Mustang Music, BMI
EXTT14=(Traditional)
EXTT15=Stuart Hine, Mana Music Inc
PLAYORDER=
